<svg aria-hidden="true" style="position: absolute; width: 0; height: 0; overflow: hidden;" version="1.1" xmlns="http://www.w3.org/2000/svg" xmlns:xlink="http://www.w3.org/1999/xlink">
<defs>
<symbol id="icon-account-multiple" viewBox="0 0 32 32">
<path d="M21.333 22.667v2.667h-18.667v-2.667s0-5.333 9.333-5.333 9.333 5.333 9.333 5.333zM16.667 10c0-2.577-2.089-4.667-4.667-4.667s-4.667 2.089-4.667 4.667c0 2.577 2.089 4.667 4.667 4.667v0c2.577 0 4.667-2.089 4.667-4.667v0zM21.253 17.333c1.61 1.254 2.659 3.163 2.746 5.32l0 0.014v2.667h5.333v-2.667s0-4.84-8.080-5.333zM20 5.333c-0.007-0-0.016-0-0.025-0-0.952 0-1.835 0.294-2.563 0.797l0.015-0.010c0.779 1.077 1.245 2.424 1.245 3.88s-0.467 2.803-1.259 3.9l0.013-0.020c0.713 0.493 1.596 0.787 2.548 0.787 0.009 0 0.018-0 0.027-0h-0.001c2.577 0 4.667-2.089 4.667-4.667s-2.089-4.667-4.667-4.667v0z"></path>
</symbol>
<symbol id="icon-apple-keyboard-command" viewBox="0 0 32 32">
<path d="M8 2.667c2.946 0 5.333 2.388 5.333 5.333v0 2.667h5.333v-2.667c0-2.946 2.388-5.333 5.333-5.333v0c2.946 0 5.333 2.388 5.333 5.333v0c0 2.946-2.388 5.333-5.333 5.333v0h-2.667v5.333h2.667c2.946 0 5.333 2.388 5.333 5.333v0c0 2.946-2.388 5.333-5.333 5.333v0c-2.946 0-5.333-2.388-5.333-5.333v0-2.667h-5.333v2.667c0 2.946-2.388 5.333-5.333 5.333v0c-2.946 0-5.333-2.388-5.333-5.333v0c0-2.946 2.388-5.333 5.333-5.333v0h2.667v-5.333h-2.667c-2.946 0-5.333-2.388-5.333-5.333v0c0-2.946 2.388-5.333 5.333-5.333v0zM21.333 24c0 1.473 1.194 2.667 2.667 2.667v0c1.473 0 2.667-1.194 2.667-2.667v0c0-1.473-1.194-2.667-2.667-2.667v0h-2.667v2.667zM18.667 13.333h-5.333v5.333h5.333v-5.333zM8 21.333c-1.473 0-2.667 1.194-2.667 2.667v0c0 1.473 1.194 2.667 2.667 2.667v0c1.473 0 2.667-1.194 2.667-2.667v0-2.667h-2.667zM10.667 8c0-1.473-1.194-2.667-2.667-2.667v0c-1.473 0-2.667 1.194-2.667 2.667v0c0 1.473 1.194 2.667 2.667 2.667v0h2.667v-2.667zM24 10.667c1.473 0 2.667-1.194 2.667-2.667v0c0-1.473-1.194-2.667-2.667-2.667v0c-1.473 0-2.667 1.194-2.667 2.667v0 2.667h2.667z"></path>
</symbol>
<symbol id="icon-blender-software" viewBox="0 0 32 32">
<path d="M16.773 4.16v0.013c-0.413 0-0.827 0.12-1.16 0.347-0.667 0.467-0.747 1.24-0.147 1.733l3.813 3.080-11.653 0.040c-0.96 0-1.893 0.627-2.080 1.427-0.213 0.813 0.453 1.493 1.467 1.493l5.907-0.013-10.573 8.12c-1.013 0.76-1.32 2.027-0.693 2.827 0.64 0.813 1.987 0.813 3.013 0l5.733-4.707c0 0-0.093 0.64-0.080 1.013 0 0.387 0.133 1.133 0.307 1.707 0.387 1.24 1.040 2.373 1.947 3.373 0.933 1.027 2.093 1.853 3.427 2.44 1.373 0.627 2.893 0.947 4.453 0.947 1.547 0 3.080-0.333 4.467-0.96 1.333-0.587 2.48-1.427 3.413-2.453 0.907-1 1.56-2.147 1.947-3.373 0.187-0.627 0.307-1.253 0.387-1.88 0-0.627 0-1.253-0.080-1.88-0.173-1.213-0.587-2.36-1.253-3.4-0.587-0.947-1.333-1.787-2.253-2.493v0l-9.187-7.053c-0.307-0.227-0.707-0.347-1.12-0.347zM20.453 12.28c1.547 0 3 0.507 4.16 1.44 0.587 0.48 1.053 1.040 1.387 1.667 0.36 0.613 0.587 1.347 0.667 2.093 0.053 0.747-0.053 1.493-0.307 2.213-0.267 0.72-0.693 1.387-1.267 1.987-1.187 1.2-2.84 1.893-4.64 1.893-1.787 0-3.453-0.68-4.64-1.88-0.573-0.587-1-1.267-1.267-1.987-0.253-0.707-0.36-1.453-0.293-2.213 0.067-0.747 0.293-1.453 0.64-2.093 0.347-0.627 0.827-1.187 1.413-1.667 1.147-0.947 2.613-1.453 4.147-1.453zM20.587 14.147c-1.040 0-2 0.373-2.707 0.973-0.72 0.613-1.213 1.467-1.253 2.453-0.053 1 0.347 1.933 1.053 2.627 0.72 0.707 1.76 1.133 2.907 1.133s2.173-0.427 2.907-1.133c0.707-0.693 1.107-1.627 1.053-2.627-0.053-0.987-0.547-1.84-1.253-2.453-0.707-0.6-1.667-0.973-2.707-0.973z"></path>
</symbol>
<symbol id="icon-bookmark-plus-outline" viewBox="0 0 32 32">
<path d="M22.667 24v-17.333h-13.333v17.333l6.667-2.907 6.667 2.907zM22.667 4c1.473 0 2.667 1.194 2.667 2.667v0 21.333l-9.333-4-9.333 4v-21.333c0-1.48 1.2-2.667 2.667-2.667h13.333zM14.667 9.333h2.667v2.667h2.667v2.667h-2.667v2.667h-2.667v-2.667h-2.667v-2.667h2.667v-2.667z"></path>
</symbol>
<symbol id="icon-buffer" viewBox="0 0 32 32">
<path d="M16.8 3.813c3.56 1.653 7.2 3.373 10.747 5.027 0.2 0.093 0.453 0.16 0.453 0.427s-0.253 0.32-0.453 0.413c-3.547 1.653-7.147 3.347-10.72 4.987-0.547 0.28-1.107 0.28-1.653 0-3.587-1.653-7.173-3.333-10.747-5-0.187-0.080-0.427-0.147-0.427-0.413 0-0.24 0.24-0.307 0.413-0.387 3.587-1.68 7.24-3.4 10.84-5.067 0.387-0.173 1.147-0.16 1.547 0.013zM16 28.2c-0.267 0-0.453-0.107-0.827-0.24-3.587-1.653-7.173-3.333-10.733-5-0.187-0.093-0.44-0.147-0.44-0.427 0-0.267 0.253-0.32 0.453-0.413 0.587-0.28 1.187-0.56 1.773-0.84 0.6-0.267 1.187-0.267 1.773 0.013 2.387 1.107 4.76 2.213 7.133 3.32 0.587 0.28 1.173 0.267 1.76 0 2.373-1.12 4.747-2.227 7.107-3.333 0.587-0.267 1.16-0.28 1.72-0.013 0.64 0.28 1.267 0.587 1.893 0.88 0.093 0.040 0.187 0.093 0.267 0.16 0.173 0.133 0.173 0.36 0 0.467-0.107 0.080-0.227 0.147-0.347 0.2-3.533 1.693-7.093 3.32-10.653 4.96-0.267 0.133-0.627 0.267-0.88 0.267zM16 21.56c-0.133 0-0.6-0.133-0.853-0.227-3.573-1.68-7.147-3.333-10.693-5.013-0.187-0.080-0.453-0.147-0.453-0.413 0-0.28 0.267-0.333 0.467-0.427 0.6-0.293 1.2-0.573 1.8-0.853 0.573-0.253 1.147-0.253 1.733 0.040 2.373 1.093 4.773 2.213 7.173 3.333 0.547 0.253 1.107 0.253 1.667 0 2.4-1.133 4.8-2.253 7.213-3.373 0.547-0.253 1.107-0.253 1.667 0 0.627 0.293 1.267 0.587 1.893 0.88 0.080 0.040 0.173 0.080 0.253 0.147 0.187 0.147 0.187 0.347-0.013 0.507-0.067 0.053-0.16 0.093-0.24 0.133-3.613 1.707-7.2 3.373-10.8 5.040-0.253 0.12-0.707 0.227-0.813 0.227z"></path>
</symbol>
<symbol id="icon-camera" viewBox="0 0 32 32">
<path d="M5.333 5.333h4l2.667-2.667h8l2.667 2.667h4c1.473 0 2.667 1.194 2.667 2.667v0 16c0 1.473-1.194 2.667-2.667 2.667v0h-21.333c-1.473 0-2.667-1.194-2.667-2.667v0-16c0-1.473 1.194-2.667 2.667-2.667v0zM16 9.333c-3.682 0-6.667 2.985-6.667 6.667v0c0 3.682 2.985 6.667 6.667 6.667v0c3.682 0 6.667-2.985 6.667-6.667v0c0-3.682-2.985-6.667-6.667-6.667v0zM16 12c2.209 0 4 1.791 4 4v0c0 2.209-1.791 4-4 4v0c-2.209 0-4-1.791-4-4v0c0-2.209 1.791-4 4-4v0z"></path>
</symbol>
<symbol id="icon-cart-outline" viewBox="0 0 32 32">
<path d="M22.667 24c1.473 0 2.667 1.194 2.667 2.667v0c0 1.473-1.194 2.667-2.667 2.667v0c-1.48 0-2.667-1.2-2.667-2.667 0-1.48 1.187-2.667 2.667-2.667zM1.333 2.667h4.36l1.253 2.667h19.72c0.736 0 1.333 0.597 1.333 1.333v0c0 0.227-0.067 0.453-0.16 0.667l-4.773 8.627c-0.453 0.813-1.333 1.373-2.333 1.373h-9.933l-1.2 2.173-0.040 0.16c0 0.184 0.149 0.333 0.333 0.333v0h15.44v2.667h-16c-1.48 0-2.667-1.2-2.667-2.667 0-0.467 0.12-0.907 0.32-1.28l1.813-3.267-4.8-10.12h-2.667v-2.667zM9.333 24c1.473 0 2.667 1.194 2.667 2.667v0c0 1.473-1.194 2.667-2.667 2.667v0c-1.48 0-2.667-1.2-2.667-2.667 0-1.48 1.187-2.667 2.667-2.667zM21.333 14.667l3.707-6.667h-16.853l3.147 6.667h10z"></path>
</symbol>
<symbol id="icon-cast-variant" viewBox="0 0 32 32">
<path d="M8 29.333h16l-8-8zM28 4h-24c-1.473 0-2.667 1.194-2.667 2.667v0 16c0 1.473 1.194 2.667 2.667 2.667v0h5.333v-2.667h-5.333v-16h24v16h-5.333v2.667h5.333c1.473 0 2.667-1.194 2.667-2.667v0-16c0-1.473-1.194-2.667-2.667-2.667v0z"></path>
</symbol>
<symbol id="icon-chevron-down" viewBox="0 0 32 32">
<path d="M9.88 11.44l6.12 6.12 6.12-6.12 1.88 1.893-8 8-8-8 1.88-1.893z"></path>
</symbol>
<symbol id="icon-chevron-left" viewBox="0 0 32 32">
<path d="M20.547 22.107l-6.107-6.107 6.107-6.12-1.88-1.88-8 8 8 8 1.88-1.893z"></path>
</symbol>
<symbol id="icon-chevron-right" viewBox="0 0 32 32">
<path d="M11.453 22.107l6.107-6.107-6.107-6.12 1.88-1.88 8 8-8 8-1.88-1.893z"></path>
</symbol>
<symbol id="icon-chevron-up" viewBox="0 0 32 32">
<path d="M9.88 20.547l6.12-6.107 6.12 6.107 1.88-1.88-8-8-8 8 1.88 1.88z"></path>
</symbol>
<symbol id="icon-close" viewBox="0 0 32 32">
<path d="M25.333 8.547l-1.88-1.88-7.453 7.453-7.453-7.453-1.88 1.88 7.453 7.453-7.453 7.453 1.88 1.88 7.453-7.453 7.453 7.453 1.88-1.88-7.453-7.453 7.453-7.453z"></path>
</symbol>
<symbol id="icon-comment-multiple-outline" viewBox="0 0 32 32">
<path d="M16 30.667c-0.736 0-1.333-0.597-1.333-1.333v0-4h-5.333c-1.473 0-2.667-1.194-2.667-2.667v0-13.333c0-1.48 1.2-2.667 2.667-2.667h18.667c1.473 0 2.667 1.194 2.667 2.667v0 13.333c0 1.473-1.194 2.667-2.667 2.667v0h-5.467l-4.933 4.947c-0.267 0.253-0.6 0.387-0.933 0.387v0h-0.667zM17.333 22.667v4.107l4.107-4.107h6.56v-13.333h-18.667v13.333h8zM4 20h-2.667v-16c0-1.473 1.194-2.667 2.667-2.667v0h21.333v2.667h-21.333v16z"></path>
</symbol>
<symbol id="icon-controller-classic" viewBox="0 0 32 32">
<path d="M8 9.333h16c3.682 0 6.667 2.985 6.667 6.667v0c0 3.682-2.985 6.667-6.667 6.667v0c-2.187 0-4.12-1.053-5.333-2.667h-5.333c-1.213 1.613-3.147 2.667-5.333 2.667-3.682 0-6.667-2.985-6.667-6.667v0c0-3.682 2.985-6.667 6.667-6.667v0zM26.333 12.667c-0.92 0-1.667 0.746-1.667 1.667v0c0 0.92 0.746 1.667 1.667 1.667v0c0.92 0 1.667-0.746 1.667-1.667v0c0-0.92-0.746-1.667-1.667-1.667v0zM23 16c-0.92 0-1.667 0.746-1.667 1.667v0c0 0.92 0.746 1.667 1.667 1.667v0c0.92 0 1.667-0.746 1.667-1.667v0c0-0.92-0.746-1.667-1.667-1.667v0zM6.667 12v2.667h-2.667v2.667h2.667v2.667h2.667v-2.667h2.667v-2.667h-2.667v-2.667h-2.667z"></path>
</symbol>
<symbol id="icon-crown" viewBox="0 0 32 32">
<path d="M6.667 21.333l-2.667-14.667 7.333 6.667 4.667-8 4.667 8 7.333-6.667-2.667 14.667h-18.667zM25.333 25.333c0 0.8-0.533 1.333-1.333 1.333h-16c-0.8 0-1.333-0.533-1.333-1.333v-1.333h18.667v1.333z"></path>
</symbol>
<symbol id="icon-cube-outline" viewBox="0 0 32 32">
<path d="M28 22c0 0.507-0.28 0.947-0.707 1.173l-10.533 5.92c-0.213 0.16-0.48 0.24-0.76 0.24s-0.547-0.080-0.76-0.24l-10.533-5.92c-0.427-0.227-0.707-0.667-0.707-1.173v-12c0-0.507 0.28-0.947 0.707-1.173l10.533-5.92c0.213-0.16 0.48-0.24 0.76-0.24s0.547 0.080 0.76 0.24l10.533 5.92c0.427 0.227 0.707 0.667 0.707 1.173v12zM16 5.533l-7.947 4.467 7.947 4.467 7.947-4.467-7.947-4.467zM6.667 21.213l8 4.507v-8.947l-8-4.493v8.933zM25.333 21.213v-8.933l-8 4.493v8.947l8-4.507z"></path>
</symbol>
<symbol id="icon-desktop-mac" viewBox="0 0 32 32">
<path d="M28 18.667h-24v-13.333h24zM28 2.667h-24c-1.48 0-2.667 1.187-2.667 2.667v16c0 1.473 1.194 2.667 2.667 2.667v0h9.333l-2.667 4v1.333h10.667v-1.333l-2.667-4h9.333c1.473 0 2.667-1.194 2.667-2.667v0-16c0-1.48-1.2-2.667-2.667-2.667z"></path>
</symbol>
<symbol id="icon-dharmachakra" viewBox="0 0 32 32">
<path d="M14.667 2.667v1.333c-2.307 0.267-4.413 1.2-6.133 2.587l-1.013-1.013-1.893 1.893 1.040 1c-1.467 1.773-2.387 3.933-2.667 6.2h-1.333v2.667h1.333c0.28 2.24 1.2 4.347 2.667 6.080l-1.040 1.013 1.893 1.893 1-0.987c1.76 1.427 3.88 2.36 6.147 2.667v1.333h2.667v-1.333c2.253-0.307 4.387-1.24 6.133-2.667l1.013 0.987 1.893-1.893-1.040-1c1.467-1.733 2.387-3.853 2.667-6.093h1.333v-2.667h-1.333c-0.28-2.267-1.2-4.413-2.667-6.187l1.040-1.013-1.893-1.893-1 1.013c-1.76-1.427-3.893-2.32-6.147-2.587v-1.333h-2.667zM14.667 6.667v4l-1.333 0.667-2.92-2.867c1.213-0.907 2.667-1.573 4.253-1.8zM17.333 6.667c1.547 0.24 3.013 0.853 4.267 1.8l-2.933 2.867-1.333-0.667v-4zM8.533 10.347l2.8 2.987-0.667 1.333h-4c0.213-1.547 0.933-3.067 1.853-4.333l0.013 0.013zM23.467 10.347c0.973 1.267 1.613 2.747 1.867 4.32h-4l-0.667-1.333 2.813-2.987h-0.013zM16 13.333c1.493 0 2.667 1.173 2.667 2.667s-1.173 2.667-2.667 2.667c-1.493 0-2.667-1.173-2.667-2.667s1.173-2.667 2.667-2.667zM6.667 17.333h4l0.76 1.333-2.907 2.867c-0.96-1.213-1.6-2.653-1.853-4.2v0zM21.333 17.333h4c-0.253 1.533-0.893 2.987-1.853 4.213l-2.813-2.88 0.667-1.333zM13.333 20.667l1.333 0.667v4c-1.56-0.267-3.027-0.92-4.267-1.907l2.933-2.76zM18.667 20.667l2.92 2.76c-1.213 0.907-2.667 1.68-4.253 1.907v-4l1.333-0.667z"></path>
</symbol>
<symbol id="icon-diamond-stone" viewBox="0 0 32 32">
<path d="M21.333 12h4l-6.667 9.333zM13.333 12h5.333l-2.667 10.667zM6.667 12h4l2.667 9.333zM20 5.333h2.667l2.667 4h-4zM14.667 5.333h2.667l1.333 4h-5.333zM9.333 5.333h2.667l-1.333 4h-4zM8 2.667l-5.333 8 13.333 18.667 13.333-18.667-5.333-8h-16z"></path>
</symbol>
<symbol id="icon-eye" viewBox="0 0 32 32">
<path d="M16 12c-2.209 0-4 1.791-4 4v0c0 2.209 1.791 4 4 4v0c2.209 0 4-1.791 4-4v0c0-2.209-1.791-4-4-4v0zM16 22.667c-3.682 0-6.667-2.985-6.667-6.667v0c0-3.682 2.985-6.667 6.667-6.667v0c3.682 0 6.667 2.985 6.667 6.667v0c0 3.682-2.985 6.667-6.667 6.667v0zM16 6c-6.667 0-12.36 4.147-14.667 10 2.307 5.853 8 10 14.667 10s12.36-4.147 14.667-10c-2.307-5.853-8-10-14.667-10z"></path>
</symbol>
<symbol id="icon-facebook" viewBox="0 0 32 32">
<path d="M16 2.72c-7.333 0-13.333 5.987-13.333 13.36 0 6.667 4.88 12.2 11.253 13.2v-9.333h-3.387v-3.867h3.387v-2.947c0-3.347 1.987-5.187 5.040-5.187 1.453 0 2.973 0.253 2.973 0.253v3.293h-1.68c-1.653 0-2.173 1.027-2.173 2.080v2.507h3.707l-0.6 3.867h-3.107v9.333c6.415-1.041 11.253-6.541 11.253-13.17 0-0.011 0-0.021-0-0.032v0.002c0-7.373-6-13.36-13.333-13.36z"></path>
</symbol>
<symbol id="icon-flower" viewBox="0 0 32 32">
<path d="M4 17.333c0 6.627 5.373 12 12 12v0c0-6.667-5.373-12-12-12zM16 7.333c1.841 0 3.333 1.492 3.333 3.333v0c0 1.841-1.492 3.333-3.333 3.333v0c-1.841 0-3.333-1.492-3.333-3.333v0c0-1.841 1.492-3.333 3.333-3.333v0zM7.467 13.667c0 1.841 1.492 3.333 3.333 3.333v0c0.707 0 1.36-0.227 1.867-0.587 0 0.080 0 0.16 0 0.253 0 1.841 1.492 3.333 3.333 3.333v0c1.841 0 3.333-1.492 3.333-3.333v0c0-0.093 0-0.173 0-0.253 0.507 0.36 1.16 0.587 1.867 0.587 1.84 0 3.333-1.493 3.333-3.333 0-1.333-0.787-2.467-1.907-3 1.12-0.533 1.907-1.68 1.907-3 0-1.84-1.493-3.333-3.333-3.333-0.707 0-1.36 0.213-1.867 0.587 0-0.080 0-0.173 0-0.253 0-1.841-1.492-3.333-3.333-3.333v0c-1.841 0-3.333 1.492-3.333 3.333v0c0 0.080 0 0.173 0 0.253-0.507-0.373-1.16-0.587-1.867-0.587-1.841 0-3.333 1.492-3.333 3.333v0c0 1.32 0.787 2.467 1.907 3-1.12 0.533-1.907 1.667-1.907 3zM16 29.333c6.627 0 12-5.373 12-12v0c-6.667 0-12 5.333-12 12z"></path>
</symbol>
<symbol id="icon-gnome" viewBox="0 0 32 32">
<path d="M24.56 2.667c-5.547 0-6.56 7.907-3.467 7.907 3.12 0 9.013-7.907 3.467-7.907zM16 3.64c-0.107 0-0.2 0-0.293 0.013-3.12 0.4-2.027 5.84-0.373 5.933 1.627 0.107 3.387-5.947 0.667-5.947zM10.573 5.787c-0.16 0-0.347 0.040-0.533 0.12-2.507 1.040-0.387 5.307 1.027 5.027 1.293-0.267 1.453-5.2-0.493-5.147zM6.573 9.133c-0.213-0.013-0.453 0.067-0.693 0.24-2.013 1.387 0.667 4.733 1.853 4.213 1.027-0.453 0.373-4.4-1.16-4.453zM17.72 11.693c-4.253 0.040-9.68 2.2-10.627 6.427-1.053 4.693 4.32 11.213 9.92 11.213 2.76 0 5.933-2.493 6.533-5.64 0.453-2.4-5.347-1.44-5.133 0.147 0.253 1.907-1.4 2.827-3.013 1.627-5.147-3.92 8.507-5.867 7.6-11.213-0.293-1.733-2.547-2.573-5.28-2.56z"></path>
</symbol>
<symbol id="icon-google-plus" viewBox="0 0 32 32">
<path d="M30.667 14.667h-2.667v-2.667h-2.667v2.667h-2.667v2.667h2.667v2.667h2.667v-2.667h2.667zM10.667 14.667v3.2h5.333c-0.267 1.333-1.6 4-5.333 4-3.2 0-5.733-2.667-5.733-5.867s2.533-5.867 5.733-5.867c1.867 0 3.067 0.8 3.733 1.467l2.533-2.4c-1.6-1.6-3.733-2.533-6.267-2.533-5.2 0-9.333 4.133-9.333 9.333s4.133 9.333 9.333 9.333c5.333 0 8.933-3.733 8.933-9.067 0-0.667 0-1.067-0.133-1.6h-8.8z"></path>
</symbol>
<symbol id="icon-guitar-electric" viewBox="0 0 32 32">
<path d="M26.12 4h3.213v2.667h-2.12l-7.053 7.053-1.88-1.853 7.84-7.867zM16 12c0.347 0 0.667 0.133 0.947 0.4l2.667 2.667c0.24 0.267 0.387 0.573 0.387 0.933l-0.133 0.533-5.333 10.667c-0.253 0.467-0.72 0.707-1.2 0.707-0.467 0-0.947-0.24-1.187-0.707l-2.48-4.933-4.933-2.4c-0.493-0.267-0.733-0.733-0.733-1.2s0.24-0.933 0.733-1.2l10.667-5.333c0.187-0.133 0.387-0.133 0.6-0.133zM12.467 15.76l-0.933 0.907 3.8 3.8 0.907-0.933-3.773-3.773zM10.587 17.64l-0.947 0.947 3.773 3.773 0.947-0.947-3.773-3.773z"></path>
</symbol>
<symbol id="icon-image-filter-center-focus-weak" viewBox="0 0 32 32">
<path d="M6.667 20h-2.667v5.333c0 1.473 1.194 2.667 2.667 2.667v0h5.333v-2.667h-5.333zM6.667 6.667h5.333v-2.667h-5.333c-1.473 0-2.667 1.194-2.667 2.667v0 5.333h2.667zM25.333 4h-5.333v2.667h5.333v5.333h2.667v-5.333c0-1.473-1.194-2.667-2.667-2.667v0zM25.333 25.333h-5.333v2.667h5.333c1.473 0 2.667-1.194 2.667-2.667v0-5.333h-2.667zM16 10.667c-2.946 0-5.333 2.388-5.333 5.333v0c0 2.946 2.388 5.333 5.333 5.333v0c2.946 0 5.333-2.388 5.333-5.333v0c0-2.946-2.388-5.333-5.333-5.333v0zM16 18.667c-1.473 0-2.667-1.194-2.667-2.667v0c0-1.473 1.194-2.667 2.667-2.667v0c1.473 0 2.667 1.194 2.667 2.667v0c0 1.473-1.194 2.667-2.667 2.667v0z"></path>
</symbol>
<symbol id="icon-instagram" viewBox="0 0 32 32">
<path d="M10.4 2.667h11.2c4.267 0 7.733 3.467 7.733 7.733v11.2c0 4.271-3.462 7.733-7.733 7.733v0h-11.2c-4.267 0-7.733-3.467-7.733-7.733v-11.2c0-4.271 3.462-7.733 7.733-7.733v0zM10.133 5.333c-2.651 0-4.8 2.149-4.8 4.8v0 11.733c0 2.653 2.147 4.8 4.8 4.8h11.733c2.651 0 4.8-2.149 4.8-4.8v0-11.733c0-2.653-2.147-4.8-4.8-4.8h-11.733zM23 7.333c0.92 0 1.667 0.746 1.667 1.667v0c0 0.92-0.746 1.667-1.667 1.667v0c-0.92 0-1.667-0.746-1.667-1.667v0c0-0.92 0.746-1.667 1.667-1.667v0zM16 9.333c3.682 0 6.667 2.985 6.667 6.667v0c0 3.682-2.985 6.667-6.667 6.667v0c-3.682 0-6.667-2.985-6.667-6.667v0c0-3.682 2.985-6.667 6.667-6.667v0zM16 12c-2.209 0-4 1.791-4 4v0c0 2.209 1.791 4 4 4v0c2.209 0 4-1.791 4-4v0c0-2.209-1.791-4-4-4v0z"></path>
</symbol>
<symbol id="icon-laptop" viewBox="0 0 32 32">
<path d="M5.333 8h21.333v13.333h-21.333zM26.667 24c1.473 0 2.667-1.194 2.667-2.667v0-13.333c0-1.48-1.2-2.667-2.667-2.667h-21.333c-1.48 0-2.667 1.187-2.667 2.667v13.333c0 1.473 1.194 2.667 2.667 2.667v0h-5.333v2.667h32v-2.667h-5.333z"></path>
</symbol>
<symbol id="icon-magnify" viewBox="0 0 32 32">
<path d="M12.667 4c4.786 0 8.667 3.88 8.667 8.667v0c0 2.147-0.787 4.12-2.080 5.64l0.36 0.36h1.053l6.667 6.667-2 2-6.667-6.667v-1.053l-0.36-0.36c-1.52 1.293-3.493 2.080-5.64 2.080-4.786 0-8.667-3.88-8.667-8.667v0c0-4.786 3.88-8.667 8.667-8.667v0zM12.667 6.667c-3.333 0-6 2.667-6 6s2.667 6 6 6c3.333 0 6-2.667 6-6s-2.667-6-6-6z"></path>
</symbol>
<symbol id="icon-map-marker" viewBox="0 0 32 32">
<path d="M16 15.333c-1.841 0-3.333-1.492-3.333-3.333v0c0-1.841 1.492-3.333 3.333-3.333v0c1.841 0 3.333 1.492 3.333 3.333v0c0 1.841-1.492 3.333-3.333 3.333v0zM16 2.667c-5.155 0-9.333 4.179-9.333 9.333v0c0 7 9.333 17.333 9.333 17.333s9.333-10.333 9.333-17.333c0-5.155-4.179-9.333-9.333-9.333v0z"></path>
</symbol>
<symbol id="icon-menu" viewBox="0 0 32 32">
<path d="M4 8h24v2.667h-24v-2.667zM4 14.667h24v2.667h-24v-2.667zM4 21.333h24v2.667h-24v-2.667z"></path>
</symbol>
<symbol id="icon-owl" viewBox="0 0 32 32">
<path d="M16 21.333c0.747 1.12 1.747 2.040 2.933 2.667l-2.933 2.933-2.933-2.933c1.187-0.627 2.2-1.547 2.933-2.667zM22.667 14.933c-1.473 0-2.667 1.194-2.667 2.667v0c0 1.473 1.194 2.667 2.667 2.667v0c1.473 0 2.667-1.194 2.667-2.667v0c0-1.48-1.2-2.667-2.667-2.667zM9.333 14.933c-1.473 0-2.667 1.194-2.667 2.667v0c0 1.473 1.194 2.667 2.667 2.667v0c1.473 0 2.667-1.194 2.667-2.667v0c0-1.48-1.2-2.667-2.667-2.667zM22.667 11.6c2.946 0 5.333 2.388 5.333 5.333v0c0 2.946-2.388 5.333-5.333 5.333v0c-2.946 0-5.333-2.388-5.333-5.333v0c0-2.946 2.388-5.333 5.333-5.333v0zM9.333 11.6c2.946 0 5.333 2.388 5.333 5.333v0c0 2.946-2.388 5.333-5.333 5.333v0c-2.946 0-5.333-2.388-5.333-5.333v0c0-2.946 2.388-5.333 5.333-5.333v0zM2.987 1.333c2.347 4.933 0.653 8.613-0.92 12.267-0.48 1.067-0.733 2.173-0.733 3.333 0 4.418 3.582 8 8 8v0c0.28-0.013 0.56-0.027 0.84-0.067l3.947 3.947 1.88 1.853 1.88-1.853 3.947-3.947c0.28 0.040 0.56 0.053 0.84 0.067 4.418 0 8-3.582 8-8v0c0-1.16-0.253-2.267-0.733-3.333-1.573-3.653-3.267-7.333-0.92-12.267-3.52 2.747-8.533 4.92-13.013 4.933-4.48-0.013-9.493-2.187-13.013-4.933z"></path>
</symbol>
<symbol id="icon-pinterest" viewBox="0 0 32 32">
<path d="M12.053 28.72c1.28 0.387 2.573 0.613 3.947 0.613 7.364 0 13.333-5.97 13.333-13.333v0c0-7.364-5.97-13.333-13.333-13.333v0c-7.364 0-13.333 5.97-13.333 13.333v0c0 5.667 3.56 10.533 8.587 12.453-0.12-1.040-0.24-2.76 0-3.947l1.533-6.587c0 0-0.387-0.773-0.387-2 0-1.84 1.147-3.213 2.453-3.213 1.147 0 1.68 0.84 1.68 1.92 0 1.147-0.76 2.787-1.147 4.36-0.227 1.307 0.693 2.453 2.027 2.453 2.373 0 4.213-2.533 4.213-6.107 0-3.2-2.293-5.387-5.587-5.387-3.76 0-5.973 2.8-5.973 5.747 0 1.147 0.373 2.307 0.987 3.067 0.12 0.080 0.12 0.187 0.080 0.387l-0.387 1.453c0 0.227-0.147 0.307-0.373 0.147-1.707-0.747-2.693-3.173-2.693-5.133 0-4.213 2.987-8.040 8.747-8.040 4.587 0 8.16 3.293 8.16 7.667 0 4.587-2.84 8.267-6.907 8.267-1.293 0-2.56-0.693-3.013-1.507l-0.893 3.16c-0.307 1.147-1.147 2.68-1.72 3.6v-0.040z"></path>
</symbol>
<symbol id="icon-twitter" viewBox="0 0 32 32">
<path d="M29.947 8c-1.027 0.467-2.133 0.773-3.28 0.92 1.173-0.707 2.080-1.827 2.507-3.173-1.107 0.667-2.333 1.133-3.627 1.4-1.053-1.147-2.533-1.813-4.213-1.813-3.133 0-5.693 2.56-5.693 5.72 0 0.453 0.053 0.893 0.147 1.307-4.747-0.24-8.973-2.52-11.787-5.973-0.493 0.84-0.773 1.827-0.773 2.867 0 1.987 1 3.747 2.547 4.747-0.947 0-1.827-0.267-2.6-0.667 0 0 0 0 0 0.040 0 2.773 1.973 5.093 4.587 5.613-0.48 0.133-0.987 0.2-1.507 0.2-0.36 0-0.72-0.040-1.067-0.107 0.72 2.253 2.813 3.933 5.333 3.973-1.947 1.547-4.413 2.453-7.107 2.453-0.453 0-0.907-0.027-1.36-0.080 2.533 1.627 5.547 2.573 8.773 2.573 10.507 0 16.28-8.72 16.28-16.28 0-0.253 0-0.493-0.013-0.747 1.12-0.8 2.080-1.813 2.853-2.973z"></path>
</symbol>
<symbol id="icon-youtube" viewBox="0 0 32 32">
<path d="M13.333 20l6.92-4-6.92-4v8zM28.747 9.56c0.173 0.627 0.293 1.467 0.373 2.533 0.093 1.067 0.133 1.987 0.133 2.787l0.080 1.12c0 2.92-0.213 5.067-0.587 6.44-0.333 1.2-1.107 1.973-2.307 2.307-0.627 0.173-1.773 0.293-3.533 0.373-1.733 0.093-3.32 0.133-4.787 0.133l-2.12 0.080c-5.587 0-9.067-0.213-10.44-0.587-1.2-0.333-1.973-1.107-2.307-2.307-0.173-0.627-0.293-1.467-0.373-2.533-0.093-1.067-0.133-1.987-0.133-2.787l-0.080-1.12c0-2.92 0.213-5.067 0.587-6.44 0.333-1.2 1.107-1.973 2.307-2.307 0.627-0.173 1.773-0.293 3.533-0.373 1.733-0.093 3.32-0.133 4.787-0.133l2.12-0.080c5.587 0 9.067 0.213 10.44 0.587 1.2 0.333 1.973 1.107 2.307 2.307z"></path>
</symbol>
</defs>
</svg>
